<svg t="1763625116085" class="icon" viewBox="0 0 1024 1024" version="1.1" xmlns="http://www.w3.org/2000/svg" p-id="8062" width="256" height="256"><path d="M176.00000001 288a48 48 0 1 1-1e-8-96l288 0a48 48 0 1 1 0 96l-287.99999999 0zM732.352 640c-13.632 0-26.304-8.128-32.832-21.12-2.624-5.376-5.12-18.432-6.336-24.768-0.384-2.112-0.64-3.52-0.768-3.584-1.34399999-9.6-2.496-21.888-3.26399999-35.84l-519.55200001 0c-22.97599999 0-41.6-19.136-41.60000001-42.688a42.112 42.112 0 0 1 41.60000001-42.688L689.088 469.312c0.832-15.36 2.176-28.736 3.968-38.65599999 0-0.32 3.2-17.088 5.312-22.72000001a39.68 39.68 0 0 1 16.512-19.264 39.424 39.424 0 0 1 18.624-4.672 94.208 94.208 0 0 1 24.512 7.16800001c33.088 13.63200001 96.32 58.432 120.57599999 85.82399999a272.64 272.64 0 0 1 7.48800001 8.32l2.24 2.56a40.704 40.704 0 0 1 7.68 24.32c0 8.064-2.368 16.128-7.04 22.656-3.072 4.544-10.112 11.84-10.112 11.84-24.768 28.288-86.528 70.912-117.888 84.608 0 0.25600001-18.56 8.384-27.456 8.704l-1.152 0z m-556.352 192a48 48 0 1 1 1e-8-96l287.99999999 0a48 48 0 0 1 0 96l-288 0z" fill="#2c2c2c" p-id="8063"></path></svg>