<svg t="1763877651534" class="icon" viewBox="0 0 1024 1024" version="1.1" xmlns="http://www.w3.org/2000/svg" p-id="6910" width="256" height="256"><path d="M332.352 79.104A449.728 449.728 0 0 0 15.168 628.544a446.336 446.336 0 0 0 489.344 328.064l7.296-1.088v-129.984l-10.624 2.112-16.64 2.496A318.336 318.336 0 0 1 138.88 595.648a321.728 321.728 0 0 1 226.88-392.96 318.272 318.272 0 0 1 390.912 225.664c7.296 27.648 10.88 55.68 10.88 83.648H639.68l192 256 192-256h-128.256a449.28 449.28 0 0 0-15.168-116.48 446.336 446.336 0 0 0-547.968-316.416z" fill="currentColor" p-id="6911"></path></svg>